<?xml version="1.0" encoding="UTF-8"?>
<svg id="Livello_2" data-name="Livello 2" xmlns="http://www.w3.org/2000/svg" viewBox="0 0 69.66049 86.34241">
  <defs>
    <style>
      .cls-1 {
        fill: #00766a;
      }

      .cls-2 {
        fill: #d4db21;
      }
    </style>
  </defs>
  <g id="Livello_1-2" data-name="Livello 1">
    <g>
      <g>
        <path class="cls-2" d="m47.8204,34.52258l-4.03003.60986,25.87012-7.33984c-.15015-.27002-.43018-.47021-.76001-.52002-12.23999-1.61011-21.32007-8.05005-27.48999-14.34009-.02002-.03003-.05005-.05005-.07007-.07983-4.90015-5.03027-8.08008-10.25-9.33008-12.5-.27002-.47021-.94995-.47021-1.20996,0-1.18994,2.1499-4.1499,7.05981-9.01001,12.13989,0,.01001-.01001.01001-.01001.01001-.09985.10986-.18994.21997-.28003.33984-.02979.02002-.06006.05005-.07983.09009-1.73022,2.27002,2.95996,30.46997,2.8999,30.56006l-1.88989,3.61987v.01001c-2.47998,4.19995-11.74023-.60986-15.15015-1.47998-.59009-.1499-1.18994-.30981-1.77002-.42993-.03003-.01001-.05981-.02002-.08984-.02002-3.40015-.72998-6.1001,2.87012-4.65015,6.03003.79004,1.70996,1.65015,3.44995,2.58008,5.20996.67993,1.29004,1.3999,2.57007,2.16992,3.86011.68994,1.16992,1.41016,2.32983,2.16992,3.48999,1.59009,2.43994,3.3501,4.84985,5.28027,7.17993,2.01978,2.44995,4.22998,4.81006,6.6499,7.02002,3.30005,2.78003,6.56982,5.22998,9.46997,7.04004,0,0,.01001.01001.02002.01001.78003.47998,1.53003.90991,2.25,1.30005.01001,0,.01001.00977.02002.00977h.02002s.01001,0,.01001-.00977h.01001c.33984-.18018.66992-.36011,1-.56006.42993-.23999.86987-.47998,1.28979-.73999,0,0,.01025-.01001.03003-.01001,3.44995-2.06006,6.61011-4.43994,9.46997-7.04004,2.41016-2.20996,4.63013-4.57007,6.65015-7.02002,3.73999-4.53003,6.84009-9.35986,9.38989-14.10986l-13.37988-13.13013-4.07007-3.98999,3.93994,2.98999,13.26001,10.06006,1.68994,1.28003c1.16016-2.32007,2.18018-4.6001,3.09009-6.79004.27002-.66016.54004-1.31006.78003-1.9502l-6.91992-2.5-12.15015-4.38989-2.62988-.94995,2.68994.58984,11.78003,2.58008,8.31006,1.83008c1.65991-4.56006,2.77002-8.45996,3.44995-11.1499l-16.01001,2.3999-5.26001.79004Z"/>
        <path class="cls-1" d="m57.33041,40.65247l-11.78003-2.58008c.29004-1.48975,1.1001-2.72998,2.27002-3.5498l5.26001-.79004c1.98999.65991,3.6001,2.40991,3.92993,4.71997.11011.72998.21021,1.46997.32007,2.19995Z"/>
        <path class="cls-1" d="m59.00034,52.78259l-13.26001-10.06006c-.12988-.96997-.23999-1.94995-.30005-2.92993-.02979-.47021-.00977-.93018.05005-1.36011l12.15015,4.38989c.09985.76025.20996,1.51025.31006,2.27002.35986,2.56006.70996,5.12012,1.0498,7.69019Z"/>
        <path class="cls-1" d="m52.16049,72.02258c-.52002-.23999-1.04004-.47021-1.55005-.70996-.25-.11011-.5-.22998-.75-.3501-3.77002-1.75-7.52002-3.59009-11.40015-5.41992-4.00977,6.31982-7.47998,13.21997-7.09985,20.75v.04004c-.71997-.39014-1.46997-.82007-2.25-1.30005-.01001,0-.02002-.01001-.02002-.01001-3.45996-2.06006-6.61011-4.43994-9.46997-7.04004-2.41992-2.20996-4.63013-4.57007-6.6499-7.02002-1.93018-2.33008-3.69019-4.73999-5.28027-7.17993,1.34009,1.18994,2.73022,2.3999,4.24023,3.71997,1.43994,1.29004,2.83984,2.6001,4.34985,3.81982,4.01001,3.28027,9.19019,2.31006,11.65015-2.25977,3.04004-5.65015,5.92993-11.38013,8.98999-17.28003,3.51001,1.63989,6.8999,3.22998,10.66992,5.01978-.51001-3.80981-.94995-7.28979-1.40991-10.75,0-.02979-.01001-.0498-.01001-.08984-.09009-.75-.19995-1.48999-.30005-2.23999l13.37988,13.13013.33008.31982v.01001c.16992,1.3501.3501,2.69995.51001,4.05005.20996,1.67993.41992,3.37012.61987,5.05005.55005,4.71997-4.08984,7.78003-8.5498,5.73999Z"/>
      </g>
      <path class="cls-1" d="m43.18051,20.40247c-.16016-.3501-.34009-.68994-.53003-1.03003-.21021-.33984-.41016-.67993-.64014-1.01001-4.20996-6.17993-12.07983-8.77979-19.11987-6.2998-.37012.12988-.72998.27002-1.09009.42993h-.01001c0,.01001-.01001.01001-.01001.01001-3.23999,1.38989-5.85986,3.73999-7.60986,6.61987-1.75,2.92017-2.61011,6.37012-2.28003,9.96997.45996,5.19019,3.38989,9.87012,7.46997,12.4502-.23999,1.27979-1.1001,2.18994-2.68994,2.18994-.82007,0-1.84009-.23999-3.07007-.81006,0,0-.01001-.01001-.02002-.01001s-.01001,0-.02002-.01001c-1.66992-.77002-3.30005-1.52002-4.58008-2.1001-6.10986-2.7998-10.86987,5.69019-8.23999,10.69019.89014,1.67993,1.67017,3.15991,2.61011,4.93994.67993,1.29004,1.3999,2.57007,2.16992,3.86011,3.72998,3.31006,7.45996,6.61987,11.20996,9.8999,3.51001,3.06006,7.6001,2.28003,9.78003-1.89014,4.37012-8.33984,8.69019-16.69971,13-25.07983.58008-1.11987.87012-2.22998.89014-3.28003v-.01001c.05005-2.19995-1.05005-4.13013-3.12012-5.18994-.76001-.38989-1.52002-.61011-2.29004-.65991h-.01001c-2.32983-.2002-4.55981,1.13989-5.91992,3.73975-2.91992,5.56006-5.78003,11.15015-8.66992,16.72021-.3501.66992-.72998,1.2998-1.2002,2.10986-1.97998-1.75-3.77979-3.3501-5.59985-4.96997.16992-.23999.34985-.47998.52002-.71997,1.56006.94995,3.12988,1.90991,4.81006,2.93994.78979-1.54004,2.40991-4.6499,3.51001-6.78003v-.01001l2.57983-4.91992c.03003-.06006.06006-.10986.09009-.16992l.07007-.13013.01001-.03003c.86987-1.62988,1.75-3.27979,2.56982-4.94995,1.39014-2.86987,3.53003-4.67993,6.79004-4.78003.31006-.01001.6001,0,.88013.02002h.01001c.67993-1.73999,2.02979-2.92993,3.58984-2.92993,2.25,0,4.07007,2.47998,4.07007,5.53003,0,.1001,0,.19995-.01001.2998,0-.00977.01001-.00977.01001-.01978,2.30005-4.11011,2.34009-9.92993.09009-14.63013Zm-8.95996,4.32007c-.55005,0-1-.6001-1-1.33008s.44995-1.32983,1-1.32983c.55981,0,1,.59985,1,1.32983s-.44019,1.33008-1,1.33008Zm7.35986-3.01001c.5-.12988,1.04004.3501,1.21997,1.06006s-.07983,1.38989-.57983,1.51001c-.5.12988-1.05005-.3501-1.23022-1.06006-.17993-.70996.08008-1.38989.59009-1.51001Z"/>
    </g>
  </g>
</svg>