<?xml version="1.0" encoding="UTF-8"?>
<svg id="Livello_2" data-name="Livello 2" xmlns="http://www.w3.org/2000/svg" viewBox="0 0 77.8453 74.22221">
  <defs>
    <style>
      .cls-1 {
        fill: #f9ae00;
      }

      .cls-2 {
        fill: #00533e;
      }

      .cls-3 {
        fill: #00766a;
      }

      .cls-4 {
        fill: #00806a;
      }

      .cls-5 {
        fill: #f28e1e;
      }

      .cls-6, .cls-7 {
        fill: #fff;
      }

      .cls-8 {
        fill: #e83f40;
      }

      .cls-9 {
        fill: #c73435;
      }

      .cls-10 {
        fill: #43575a;
      }

      .cls-11 {
        fill: #6fb783;
      }

      .cls-12 {
        fill: #344647;
      }

      .cls-7 {
        opacity: .6;
      }
    </style>
  </defs>
  <g id="Livello_1-2" data-name="Livello 1">
    <g>
      <path class="cls-3" d="m47.9151,3.4634c-.09424,0-.18848-.01333-.28272-.03998-2.61967-.7482-5.33738-1.19465-8.07604-1.32697-.64254-.03141-1.28413-.05807-1.94381-.04188h-.00476c-.56544,0-1.02426-.45692-1.02712-1.02236-.0019-.56734.45597-1.02902,1.02236-1.03188.67872-.00286,1.37266.01237,2.05328.04569,2.89477.13898,5.7686.61113,8.53962,1.40312.54545.15611.86148.72441.70537,1.2689-.12851.45121-.53974.74535-.98618.74535Z"/>
      <path class="cls-3" d="m13.80023,64.27841l3.21335-9.71011,2.95771,14.20947c-2.0809-1.19893-4.04092-2.6009-5.84335-4.19672-.1117-.09872-.21758-.20258-.32771-.30264Zm8.34486,6.38752c.01925.00515.03671.01007.05619.01522l-.16498.34517.10879-.3604Zm36.66504-22.97281l-.63013-.84009-.76001-.97998-1.29004-1.71997h-.01001l-3.32983-4.3999-.65015-.84009-.70996-.94995c-.70996-.58008-1.56006-.96997-2.44995-1.13013-.31006-.0498-.6001-.06982-.91016-.06982h-2.69995c-5.62988-.23999-6.98999-1.84009-7.05981-3.83008,5.12988-1.73999,8.80981-6.58008,8.80981-12.30005,0-7.15991-5.80981-12.96997-12.96997-12.96997-7.1499,0-12.95996,5.81006-12.95996,12.96997,0,5.54004,3.46997,10.27002,8.3501,12.13013-.01001,2.08008-1.28003,3.75-7.07007,4h-1.29004c-2.96997,0-7.97998.31006-9.75,4.33008-2.21997,5-4.40991,10.6499-5.36011,13.1499-2.87988-5.55005-4.26978-11.79004-3.97998-18.11011C2.83992,19.51319,16.55012,4.68311,33.29011,2.36329c.56006-.08008.94995-.6001.86987-1.16016-.07007-.56006-.59009-.94995-1.1499-.87012C15.31013,2.78321.83015,18.46314.04011,36.03321c-.32007,7.01001,1.27979,13.92993,4.63989,20.01001,2.1001,3.78979,4.82007,7.17993,8.09009,10.07983,2.60986,2.31006,5.53003,4.25,8.67993,5.76001l.13989.07007c2.77002,1.32007,5.7002,1.93994,8.59009,1.93994,7.48999,0,14.73999-4.17993,18.27002-11.33008,1.21997-2.47998,2.23999-5.13989,3.05005-7.90991l.18994.26001.05005.06006,3.41992,4.69995,5.8501-9.07007-2.19995-2.90991Zm-19.69019-25.59985c-.40991,0-.73999-.41016-.73999-.92017s.33008-.91992.73999-.91992c.40015,0,.73022.40991.73022.91992s-.33008.92017-.73022.92017Zm-1.65991-2.65015l2.91992-1.23999c.25-.10986.54004,0,.64014.25.10986.25-.01001.54004-.25.64014l-2.91992,1.25c-.06006.02979-.13013.03979-.19019.03979-.18994,0-.36987-.10986-.44995-.30005-.10986-.23975.01001-.52979.25-.63989Zm-10.08008-.86987c.1001-.25.39014-.36011.64014-.26025l2.91992,1.25c.23999.11011.36011.39014.25.64014-.08008.18994-.26001.30005-.43994.30005-.07007,0-.13013-.01001-.19995-.04004l-2.91016-1.25c-.25-.11011-.36987-.38989-.26001-.63989Zm1.91016,3.63989c-.41016,0-.73999-.40991-.73999-.91992s.32983-.92017.73999-.92017c.3999,0,.72998.41016.72998.92017s-.33008.91992-.72998.91992Zm.90991,5.25c-.27002,0-.48999-.21997-.48999-.48999,0-.26001.21997-.47998.48999-.47998h8c.27002,0,.48999.21997.48999.47998,0,.27002-.21997.48999-.48999.48999h-8Z"/>
      <g>
        <path class="cls-12" d="m61.13644,49.91982l-.12314.68544-.07895.44816-2.32878,13.36552v.0088l-.72041,4.17399c-1.51161.98429-3.09316,1.86302-4.7453,2.60982-.77318.36921-1.56664.68782-2.37254,1.00188-3.71968,1.44956-7.19992,1.86005-7.91224,2.00878,5.36859-7.6612,7.74549-14.34988,9.95976-25.75222.18701-.96301.5447-1.84543,1.04564-2.55704.14932-.20231.31622-.4044.48335-.5801.01738-.01759.03497-.04398.06136-.06157.50094-.51832,1.08962-.90512,1.71349-1.1158h.00901c.57109-.19351,1.15978-.25487,1.75747-.14953,1.26533.21968,2.26699,1.11601,2.8383,2.36375.01759.02639.02617.05278.03518.07916.10534.22848.1845.46576.25465.72062.23728.83476.29005,1.78386.12314,2.75034Z"/>
        <g>
          <path class="cls-12" d="m72.78654,18.63545l-20.33752-3.54773c-.36915-.0644-.6429-.37829-.6565-.75277l-.40228-11.07585c-.01831-.50408.43227-.89704.92918-.81036l24.8684,4.33811c.49691.08668.78783.60899.59993,1.0771l-4.1286,10.28547c-.13959.34775-.50345.55042-.8726.48602Z"/>
          <path class="cls-12" d="m75.25777,22.38019l-2.10909,5.25482-2.02113,5.02655c-.14052.35141-.50072.5535-.86994.49214l-.30743-.05278-6.28308-1.09842-1.94197-.33403-3.26887-.57109-1.95956-.34261-6.26549-1.09842-.31622-.05278c-.36921-.06157-.64146-.37801-.65026-.75581l-.40418-11.07193c-.01759-.50973.43057-.89633.9225-.80858l2.57485.44816,17.91731,3.11955,1.81025.31644,2.57463.44795c.49214.08796.78219.61529.59769,1.08083Z"/>
          <path class="cls-12" d="m72.7269,36.89691l-4.13001,10.28137c-.14073.35141-.50094.5535-.86994.48313l-.30764-.05256-5.45691-.9491-1.20376-.21089-.15833-.02639-3.18091-.55371-2.91746-.50952-.15811-.02639-1.20397-.21089-5.44811-.9491-.30764-.05256c-.369-.07037-.64146-.37801-.65905-.75581l-.23728-6.6081-.15811-4.46383c-.01759-.50973.43057-.90534.92271-.81738l2.58343.44816,19.71876,3.44479,2.56605.44795c.50094.08796.79078.60628.60628,1.08083Z"/>
          <path class="cls-10" d="m74.92374,4.55084l-.30764,1.78386-2.13527,12.24951-.39539,2.2672-.44816,2.53945-1.6871,9.71006-.3956,2.2672-2.13527,12.24072-.5535,3.15452c-.12314.71183-.79979,1.18638-1.5114,1.06345l-3.93672-.68565-.48335-.08774-4.1476-.72062-4.16541-.72942-.49193-.08774-3.91934-.68544c-.71161-.12293-1.19496-.79957-1.06324-1.5114l.1845-1.06324.36042-2.0827,1.28292-7.33731.86114-4.91221.39539-2.26699,2.12668-12.24093.40418-2.27579,1.75747-10.10545.3778-2.13548.30764-1.78386c.12293-.71161.79957-1.18616,1.5114-1.06324l17.14413,2.98783c.71161.12293,1.18616.79957,1.06324,1.5114Z"/>
          <g>
            <g>
              <circle class="cls-4" cx="63.67922" cy="10.77681" r="6.61856"/>
              <circle class="cls-11" cx="63.67922" cy="10.77681" r="5.76872"/>
            </g>
            <g>
              <circle class="cls-5" cx="61.03447" cy="25.93798" r="6.61856"/>
              <circle class="cls-1" cx="61.03447" cy="25.93798" r="5.76872"/>
            </g>
            <g>
              <circle class="cls-9" cx="58.38971" cy="41.09915" r="6.61856"/>
              <circle class="cls-8" cx="58.38971" cy="41.09915" r="5.76872"/>
            </g>
          </g>
        </g>
      </g>
      <path class="cls-6" d="m49.54082,33.8643c-.01433,0-.02955-.00179-.04387-.00448-.13968-.02418-.2337-.15669-.20863-.29638l4.9784-28.57295c.02328-.14058.15848-.23638.29638-.20863.13968.02418.2337.15669.20863.29638l-4.9784,28.57295c-.02149.12536-.12983.2131-.2525.2131Z"/>
      <path class="cls-6" d="m60.00978,51.1517c-.01433,0-.02955-.00179-.04387-.00448l-11.79952-2.06478c-.41636-.07163-.77899-.30175-1.01986-.64737-.23818-.34204-.32771-.75482-.2525-1.16312l2.0612-11.81116c.02418-.13968.16117-.2337.29638-.20863.13968.02418.2337.15669.20863.29638l-2.0612,11.81384c-.05014.27489.00985.55067.16833.77899.16207.2328.40651.38771.68677.43516l11.79952,2.06568c.13968.02418.2337.15669.20863.29638-.02149.12536-.12983.2131-.2525.2131Z"/>
      <path class="cls-7" d="m57.63072,45.83305c-.01433,0-.02955-.00179-.04387-.00448-1.25445-.21848-2.34862-.91241-3.08105-1.95465-.73243-1.04134-1.01448-2.30564-.79511-3.56009.21848-1.25445.91241-2.34862,1.95375-3.08016,1.04224-.73422,2.30922-1.01627,3.56009-.79601.13968.02418.2337.15669.20863.29638-.02418.13968-.16207.23101-.29638.20863-1.11835-.19609-2.24655.05641-3.17686.71094-.92942.65274-1.54903,1.62962-1.74423,2.74797-.1952,1.11924.05731,2.24834.71005,3.17776.65364.92942,1.62962,1.54903,2.74886,1.74423.13968.02418.2337.15669.20863.29638-.02149.12536-.12983.2131-.2525.2131Z"/>
      <path class="cls-7" d="m59.99545,30.67222c-.01433,0-.02955-.00179-.04387-.00448-2.58948-.45128-4.32834-2.92526-3.87617-5.51474.21848-1.25445.91241-2.34862,1.95375-3.08105,1.04224-.73422,2.30922-1.01627,3.56009-.79601.13968.02418.2337.15669.20863.29638-.02418.14058-.16386.23818-.29638.20863-1.12193-.1952-2.24744.05731-3.17686.71094-.92942.65364-1.54903,1.62962-1.74423,2.74886s.05731,2.24744.71094,3.17686c.65274.93032,1.62962,1.54993,2.74797,1.74513.13968.02418.2337.15669.20863.29638-.02149.12536-.12983.2131-.2525.2131Z"/>
      <path class="cls-7" d="m62.63866,15.51049c-.01433,0-.02955-.00179-.04387-.00448-1.25445-.21848-2.34862-.91241-3.08105-1.95375-.73243-1.04224-1.01538-2.30654-.79601-3.56009.21848-1.25445.91241-2.34862,1.95465-3.08105,1.04134-.73243,2.30654-1.01717,3.56009-.79601.13968.02418.2337.15669.20863.29638-.02418.14058-.16117.23459-.29638.20863-1.12014-.1952-2.24744.05641-3.17686.71094-.93032.65364-1.54993,1.62962-1.74513,2.74886s.05731,2.24744.71094,3.17686c.65364.92942,1.62962,1.54903,2.74886,1.74423.13968.02418.2337.15669.20863.29638-.02149.12536-.12983.2131-.2525.2131Z"/>
      <path class="cls-3" d="m60.80418,51.80069s2.59112,4.56956,3.81273,6.86668c1.06183,1.99665.18467,3.92414-1.09787,5.00893-1.92441,1.62769-4.28737,3.75828-5.27308,4.59367-1.62481,1.37703-5.34674,1.95202-6.87878,0-1.29286-1.64726-1.38499-3.60097-.18467-5.49379,1.55019-2.44453,8.74838-5.95515,8.74838-5.95515l.87329-5.02033Z"/>
      <path class="cls-2" d="m33.04047,33.60712s2.88655.16187,5.26748-.67973c0,0-.33437,3.75122,7.06234,3.829,0,0-4.5858,1.61124-8.50561,0-3.91981-1.61124-3.82421-3.14927-3.82421-3.14927Z"/>
      <path class="cls-2" d="m48.23456,49.11408s-1.70674,24.8043-17.76291,24.72067c0,0,2.19823.2872,5.63081-.80838,1.69892-.54225,4.45258-1.81731,5.90957-2.85722,3.65167-2.60634,5.34518-5.63033,5.48401-5.86501.98195-1.65991,1.66434-3.21641,2.35735-4.85758,2.00854-4.75654,2.68722-9.59318,2.68722-9.59318l-4.30604-.73929Z"/>
    </g>
  </g>
</svg>