<?xml version="1.0" encoding="UTF-8" standalone="no"?>
<svg
   id="Livello_2"
   data-name="Livello 2"
   viewBox="0 0 103.42366 98.575561"
   version="1.1"
   sodipodi:docname="Sigy-symbol-green.svg"
   inkscape:version="1.3 (0e150ed, 2023-07-21)"
   width="103.42366"
   height="98.575562"
   xmlns:inkscape="http://www.inkscape.org/namespaces/inkscape"
   xmlns:sodipodi="http://sodipodi.sourceforge.net/DTD/sodipodi-0.dtd"
   xmlns="http://www.w3.org/2000/svg"
   xmlns:svg="http://www.w3.org/2000/svg">
  <sodipodi:namedview
     id="namedview27"
     pagecolor="#ffffff"
     bordercolor="#000000"
     borderopacity="0.25"
     inkscape:showpageshadow="2"
     inkscape:pageopacity="0.0"
     inkscape:pagecheckerboard="0"
     inkscape:deskcolor="#d1d1d1"
     inkscape:zoom="0.74897777"
     inkscape:cx="12.016378"
     inkscape:cy="-150.8723"
     inkscape:window-width="1392"
     inkscape:window-height="1027"
     inkscape:window-x="400"
     inkscape:window-y="25"
     inkscape:window-maximized="0"
     inkscape:current-layer="g27" />
  <defs
     id="defs1">
    <style
       id="style1">&#10;      .cls-1 {&#10;        fill: #f9ae00;&#10;      }&#10;&#10;      .cls-2 {&#10;        fill: #00533e;&#10;      }&#10;&#10;      .cls-3 {&#10;        fill: #00766a;&#10;      }&#10;&#10;      .cls-4 {&#10;        fill: #00806a;&#10;      }&#10;&#10;      .cls-5 {&#10;        fill: #f28e1e;&#10;      }&#10;&#10;      .cls-6, .cls-7 {&#10;        fill: #fff;&#10;      }&#10;&#10;      .cls-8 {&#10;        fill: #e83f40;&#10;      }&#10;&#10;      .cls-9 {&#10;        fill: #c73435;&#10;      }&#10;&#10;      .cls-10 {&#10;        fill: #43575a;&#10;      }&#10;&#10;      .cls-11 {&#10;        fill: #6fb783;&#10;      }&#10;&#10;      .cls-12 {&#10;        fill: #344647;&#10;      }&#10;&#10;      .cls-7 {&#10;        opacity: .6;&#10;      }&#10;    </style>
  </defs>
  <g
     id="Livello_1-2"
     data-name="Livello 1"
     transform="translate(0.03246875,1.8509282e-5)">
    <g
       id="g27">
      <g
         id="g26">
        <path
           class="cls-3"
           d="m 63.64048,4.59979 c -0.12516,0 -0.25032,-0.0177 -0.37548,-0.0531 C 59.78578,3.55299 56.17635,2.96006 52.5391,2.78432 51.68573,2.7426 50.83363,2.7072 49.9575,2.72869 h -0.0063 c -0.75096,0 -1.36033,-0.60684 -1.36413,-1.35781 -0.0025,-0.75349 0.60558,-1.36666 1.35781,-1.37045 0.90141,-0.00379 1.82305,0.01644 2.72699,0.06068 3.84459,0.18458 7.66136,0.81165 11.34159,1.86351 0.72442,0.20734 1.14415,0.96209 0.93681,1.68525 -0.17067,0.59925 -0.71683,0.98991 -1.30976,0.98991 z"
           id="path5"
           style="fill:#d5da4e;fill-opacity:1" />
        <path
           class="cls-3"
           d="m 18.33205,85.36904 4.26769,-12.89613 3.92818,18.8718 c -2.76367,-1.59232 -5.3668,-3.45429 -7.76063,-5.57372 -0.14835,-0.13111 -0.28897,-0.26905 -0.43524,-0.40195 z m 11.08292,8.48336 c 0.02557,0.0068 0.04876,0.01338 0.07462,0.02022 l -0.21911,0.45843 z M 78.11415,63.34391 77.27431,62.2338 76.2643,60.92374 74.55409,58.64371 h -0.02002 l -4.41992,-5.84985 -0.85986,-1.11011 -0.93994,-1.26001 c -0.9502,-0.76978 -2.07007,-1.28979 -3.26025,-1.5 -0.40991,-0.07983 -0.78979,-0.09985 -1.20996,-0.09985 H 60.2543 c -7.47998,-0.31006 -9.28003,-2.43994 -9.37012,-5.09009 6.81006,-2.31006 11.70996,-8.73999 11.70996,-16.32983 0,-9.51025 -7.71997,-17.23022 -17.23999,-17.23022 -9.5,0 -17.20996,7.71997 -17.20996,17.23022 0,7.35986 4.6001,13.63989 11.09009,16.10986 -0.01001,2.76001 -1.68994,4.97998 -9.38013,5.31006 h -1.72998 c -3.92993,0 -10.59009,0.40991 -12.93994,5.76001 -2.93994,6.63989 -5.8501,14.13989 -7.11987,17.44995 5.410696,11.152999 9.333798,17.920626 20.41991,23.42994 l 0.19995,0.1001 c 1.83008,0.87988 3.72998,1.52002 5.63989,1.94995 1.91016,0.41992 3.84009,0.62988 5.76001,0.62988 9.94995,0 19.58008,-5.55981 24.27002,-15.0498 1.62012,-3.29004 2.96997,-6.83008 4.04004,-10.51001 l 0.25,0.33984 0.08008,0.09009 4.53003,6.23999 7.77979,-12.05005 -2.91992,-3.85986 z m -26.15991,-34 c -0.54004,0 -0.97998,-0.55005 -0.97998,-1.22021 0,-0.67993 0.43994,-1.21973 0.97998,-1.21973 0.54004,0 0.97998,0.53979 0.97998,1.21973 0,0.67017 -0.43994,1.22021 -0.97998,1.22021 z m -2.18994,-3.52002 3.86987,-1.65015 c 0.33008,-0.13989 0.70996,0.01001 0.8501,0.34009 0.13989,0.33008 -0.01001,0.70996 -0.34009,0.8501 l -3.86987,1.6499 c -0.09009,0.04004 -0.17017,0.06006 -0.26001,0.06006 -0.25,0 -0.48999,-0.15015 -0.59009,-0.40015 -0.14014,-0.32983 0.01001,-0.70996 0.34009,-0.84985 z M 36.36415,24.66373 c 0.14014,-0.32983 0.52002,-0.47998 0.8501,-0.33984 l 3.87988,1.65991 c 0.33008,0.13989 0.47998,0.52002 0.34009,0.8501 -0.11011,0.25 -0.3501,0.38989 -0.6001,0.38989 -0.07983,0 -0.16992,-0.01001 -0.25,-0.05005 l -3.87988,-1.65991 c -0.33008,-0.14014 -0.47998,-0.52002 -0.34009,-0.8501 z m 2.53003,4.84009 c -0.53003,0 -0.96997,-0.55005 -0.96997,-1.21997 0,-0.68018 0.43994,-1.22998 0.96997,-1.22998 0.54004,0 0.97998,0.5498 0.97998,1.22998 0,0.66992 -0.43994,1.21997 -0.97998,1.21997 z m 1.20996,6.96997 c -0.34985,0 -0.63989,-0.29004 -0.63989,-0.63989 0,-0.36011 0.29004,-0.65015 0.63989,-0.65015 h 10.64014 c 0.35986,0 0.6499,0.29004 0.6499,0.65015 0,0.34985 -0.29004,0.63989 -0.6499,0.63989 z"
           id="path6"
           sodipodi:nodetypes="ccccccccccccccccccsccsssccscccccsccccccccssssscccccsccccccscccssssssssssss" />
        <g
           id="g19">
          <path
             class="cls-12"
             d="m 81.19992,66.2992 -0.16355,0.91034 -0.10485,0.59521 -3.09288,17.75094 v 0.01168 l -0.95678,5.54354 c -2.00759,1.30724 -4.10807,2.4743 -6.3023,3.46613 -1.02688,0.49036 -2.08068,0.9135 -3.15101,1.33061 -4.94016,1.92519 -9.56232,2.47036 -10.50835,2.66789 7.1301,-10.17494 10.28689,-19.05827 13.22769,-34.20188 0.24837,-1.27898 0.72343,-2.45094 1.38873,-3.39604 0.19831,-0.26869 0.41998,-0.53709 0.64194,-0.77044 0.02308,-0.02336 0.04644,-0.05841 0.08149,-0.08177 0.6653,-0.68838 1.44714,-1.20211 2.27571,-1.4819 h 0.01197 c 0.75848,-0.257 1.54031,-0.33849 2.33412,-0.19859 1.6805,0.29177 3.01082,1.48219 3.76958,3.13932 0.02336,0.03505 0.03476,0.07009 0.04673,0.10514 0.1399,0.30345 0.24504,0.61858 0.33821,0.95707 0.31513,1.10865 0.38522,2.36917 0.16355,3.65276 z"
             id="path7" />
          <g
             id="g18">
            <path
               class="cls-12"
               d="M 96.67258,24.75 69.66204,20.03821 C 69.17177,19.95269 68.80819,19.5358 68.79013,19.03845 L 68.25586,4.32846 c -0.02432,-0.66948 0.5741,-1.19137 1.23406,-1.07625 l 33.02806,5.7615 c 0.65995,0.11512 1.04632,0.80881 0.79677,1.43051 L 97.8315,24.10449 c -0.18539,0.46185 -0.66865,0.73102 -1.15891,0.6455 z"
               id="path8" />
            <path
               class="cls-12"
               d="m 99.95466,29.72344 -2.80112,6.979 -2.6843,6.67583 c -0.18663,0.46671 -0.66502,0.73511 -1.15538,0.65362 L 92.90556,43.9618 84.56091,42.50297 81.98175,42.05934 77.64032,41.30086 75.0378,40.84583 66.71651,39.387 66.29653,39.31691 c -0.49036,-0.08177 -0.85193,-0.50204 -0.86361,-1.0038 l -0.5368,-14.70479 c -0.02336,-0.67699 0.57185,-1.19042 1.22519,-1.07389 l 3.41969,0.59521 23.79623,4.14312 2.40421,0.42027 3.41941,0.59493 c 0.65362,0.11682 1.03884,0.81717 0.79381,1.43546 z"
               id="path9" />
            <path
               class="cls-12"
               d="m 96.59337,49.00329 -5.48513,13.65483 c -0.18691,0.46671 -0.6653,0.73511 -1.15538,0.64166 l -0.40858,-0.06981 -7.2474,-1.26052 -1.59872,-0.28008 -0.21028,-0.03505 -4.22461,-0.7354 -3.87472,-0.6767 -0.20999,-0.03505 -1.59901,-0.28008 -7.23572,-1.26052 -0.40858,-0.06981 c -0.49007,-0.09346 -0.85193,-0.50204 -0.8753,-1.0038 l -0.31513,-8.77631 -0.20999,-5.92847 c -0.02336,-0.67699 0.57185,-1.20239 1.22547,-1.08557 l 3.43109,0.59521 26.18876,4.57507 3.40801,0.59493 c 0.6653,0.11682 1.05024,0.8052 0.8052,1.43546 z"
               id="path10" />
            <path
               class="cls-10"
               d="m 99.51102,6.04403 -0.40858,2.36917 -2.83588,16.26875 -0.52512,3.01111 -0.59521,3.37268 -2.24066,12.89607 -0.5254,3.01111 -2.83588,16.25707 -0.73511,4.18956 c -0.16355,0.94539 -1.06221,1.57565 -2.00731,1.41238 L 81.57346,67.9213 80.93152,67.80476 75.42303,66.84769 69.89089,65.87894 69.23755,65.7624 64.03222,64.85206 c -0.9451,-0.16326 -1.58704,-1.06192 -1.4121,-2.00731 l 0.24504,-1.4121 0.47868,-2.76607 1.70386,-9.74478 1.1437,-6.52397 0.52512,-3.01082 2.82448,-16.25735 0.5368,-3.0225 2.33412,-13.42119 0.50176,-2.83616 0.40858,-2.36917 c 0.16326,-0.9451 1.06192,-1.57536 2.00731,-1.4121 l 22.76935,3.96818 c 0.9451,0.16326 1.57536,1.06192 1.4121,2.00731 z"
               id="path11" />
            <g
               id="g17">
              <g
                 id="g12">
                <circle
                   class="cls-4"
                   cx="84.577026"
                   cy="14.31283"
                   r="8.7902098"
                   id="circle11" />
                <circle
                   class="cls-11"
                   cx="84.577026"
                   cy="14.31283"
                   r="7.66152"
                   id="circle12" />
              </g>
              <g
                 id="g14">
                <circle
                   class="cls-5"
                   cx="81.064491"
                   cy="34.448582"
                   r="8.7902098"
                   id="circle13" />
                <circle
                   class="cls-1"
                   cx="81.064491"
                   cy="34.448582"
                   r="7.66152"
                   id="circle14" />
              </g>
              <g
                 id="g16">
                <circle
                   class="cls-9"
                   cx="77.551964"
                   cy="54.584339"
                   r="8.7902098"
                   id="circle15" />
                <circle
                   class="cls-8"
                   cx="77.551964"
                   cy="54.584339"
                   r="7.66152"
                   id="circle16" />
              </g>
            </g>
          </g>
        </g>
        <path
           class="cls-6"
           d="m 65.79962,44.97565 c -0.01903,0 -0.03924,-0.0024 -0.05827,-0.0059 -0.18551,-0.03211 -0.31038,-0.20811 -0.27708,-0.39362 L 72.07615,6.62795 c 0.03092,-0.1867 0.21049,-0.31395 0.39362,-0.27708 0.18551,0.03211 0.31038,0.20811 0.27708,0.39362 l -6.61188,37.94813 c -0.02854,0.16649 -0.17243,0.28303 -0.33535,0.28303 z"
           id="path19" />
        <path
           class="cls-6"
           d="m 79.70359,67.93527 c -0.01903,0 -0.03924,-0.0024 -0.05827,-0.0059 L 63.97422,65.18706 C 63.42125,65.09193 62.93963,64.7863 62.61974,64.32728 62.30342,63.87301 62.1845,63.3248 62.28439,62.78253 L 65.0219,47.09597 c 0.03211,-0.18551 0.21405,-0.31038 0.39362,-0.27708 0.18551,0.03211 0.31038,0.20811 0.27708,0.39362 l -2.73751,15.69013 c -0.06659,0.36508 0.01308,0.73135 0.22357,1.03459 0.21524,0.30919 0.53989,0.51492 0.91211,0.57794 l 15.6711,2.74345 c 0.18551,0.03211 0.31038,0.20811 0.27708,0.39362 -0.02854,0.16649 -0.17243,0.28303 -0.33535,0.28303 z"
           id="path20" />
        <path
           class="cls-7"
           d="m 76.54392,60.8715 c -0.01903,0 -0.03924,-0.0024 -0.05827,-0.0059 -1.66605,-0.29016 -3.11924,-1.21178 -4.09199,-2.59599 -0.97275,-1.38302 -1.34735,-3.06216 -1.056,-4.72821 0.29016,-1.66605 1.21178,-3.11924 2.59481,-4.0908 1.38421,-0.97513 3.06691,-1.34973 4.72821,-1.05719 0.18551,0.03211 0.31038,0.20811 0.27708,0.39362 -0.03211,0.18551 -0.21524,0.30681 -0.39362,0.27708 -1.48529,-0.26043 -2.98367,0.07492 -4.21923,0.94421 -1.23438,0.86692 -2.05729,2.16432 -2.31654,3.64961 -0.25924,1.48648 0.07611,2.98605 0.94302,4.22042 0.86811,1.23438 2.16432,2.05729 3.6508,2.31654 0.18551,0.03211 0.31038,0.20811 0.27708,0.39362 -0.02854,0.16649 -0.17243,0.28303 -0.33535,0.28303 z"
           id="path21" />
        <path
           class="cls-7"
           d="m 79.68456,40.7362 c -0.01903,0 -0.03924,-0.0024 -0.05827,-0.0059 -3.43913,-0.59935 -5.74853,-3.88507 -5.14799,-7.3242 0.29016,-1.66605 1.21178,-3.11924 2.59481,-4.09199 1.38421,-0.97513 3.06691,-1.34973 4.72821,-1.05719 0.18551,0.03211 0.31038,0.20811 0.27708,0.39362 -0.03211,0.1867 -0.21762,0.31632 -0.39362,0.27708 -1.49005,-0.25924 -2.98486,0.07611 -4.21923,0.94421 -1.23437,0.8681 -2.05729,2.16432 -2.31654,3.6508 -0.25925,1.48648 0.07611,2.98486 0.94421,4.21923 0.86692,1.23556 2.16432,2.05848 3.64961,2.31772 0.18551,0.03211 0.31038,0.20811 0.27708,0.39362 -0.02854,0.16649 -0.17243,0.28303 -0.33535,0.28303 z"
           id="path22" />
        <path
           class="cls-7"
           d="m 83.19504,20.5997 c -0.01903,0 -0.03924,-0.0024 -0.05827,-0.0059 -1.66605,-0.29016 -3.11924,-1.21178 -4.09199,-2.59481 -0.97275,-1.38421 -1.34854,-3.06334 -1.05719,-4.72821 0.29016,-1.66605 1.21178,-3.11924 2.59599,-4.09199 1.38302,-0.97275 3.06334,-1.35092 4.72821,-1.05719 0.18551,0.03211 0.31038,0.20811 0.27708,0.39362 -0.03211,0.1867 -0.21405,0.31157 -0.39362,0.27708 -1.48767,-0.25924 -2.98486,0.07492 -4.21923,0.94421 -1.23556,0.86811 -2.05848,2.16432 -2.31772,3.6508 -0.25924,1.48648 0.07611,2.98486 0.94421,4.21923 0.8681,1.23437 2.16432,2.05729 3.6508,2.31654 0.18551,0.03211 0.31038,0.20811 0.27708,0.39362 -0.02854,0.16649 -0.17243,0.28303 -0.33535,0.28303 z"
           id="path23" />
        <path
           class="cls-3"
           d="m 80.75864,68.79721 c 0,0 3.4413,6.06889 5.06375,9.11973 1.41023,2.65178 0.24526,5.2117 -1.4581,6.65242 -2.55583,2.16176 -5.69411,4.99142 -7.00326,6.10092 -2.15793,1.82885 -7.10108,2.5925 -9.13581,0 -1.71706,-2.18775 -1.83942,-4.7825 -0.24526,-7.29638 2.05883,-3.24661 11.61884,-7.90912 11.61884,-7.90912 l 1.15983,-6.66757 z"
           id="path24" />
        <path
           class="cls-2"
           d="m 43.88528,44.63407 c 0,0 3.83366,0.21498 6.99581,-0.90276 0,0 -0.44409,4.98205 9.37959,5.08535 0,0 -6.09046,2.13991 -11.29642,0 -5.20595,-2.13991 -5.07898,-4.18259 -5.07898,-4.18259 z"
           id="path25" />
        <path
           class="cls-2"
           d="m 64.06476,65.22909 c 0,0 -2.26674,32.94293 -23.59117,32.83186 0,0 2.9195,0.38143 7.47836,-1.07363 2.25636,-0.72017 5.91354,-2.4136 7.84858,-3.79471 4.84983,-3.46152 7.099,-7.47772 7.28338,-7.78941 1.30414,-2.20455 2.21043,-4.27176 3.13083,-6.45141 2.66757,-6.31722 3.56893,-12.74084 3.56893,-12.74084 l -5.71891,-0.98187 z"
           id="path26" />
      </g>
      <path
         class="cls-3"
         d="M 22.662835,92.141419 C 19.343813,88.877859 14.871842,82.255606 8.1203,72.0193 4.29022,64.649179 2.45013,56.369395 2.83026,47.969245 3.83024,25.909194 22.03019,6.2092345 44.27018,3.1291645 c 0.75,-0.10986 1.27002,-0.799804 1.15991,-1.540044 C 45.33024,0.83912048 44.64005,0.31934048 43.90006,0.42921048 20.40007,3.6792145 1.0816788,24.568225 0.02161869,47.898066 c -0.42993,9.31006 1.71021011,18.500004 6.17017011,26.570075 5.5477282,9.192998 8.5338842,11.965846 15.9295902,17.345487 z"
         id="path6-1"
         style="fill:#d5da3d;fill-opacity:1"
         sodipodi:nodetypes="cccccccccc" />
    </g>
  </g>
</svg>
