<?xml version="1.0" encoding="UTF-8"?>
<svg id="Livello_2" data-name="Livello 2" xmlns="http://www.w3.org/2000/svg" viewBox="0 0 86.92529 73.15771">
  <defs>
    <style>
      .cls-1 {
        fill: #006256;
      }

      .cls-2 {
        fill: #00806a;
      }

      .cls-3 {
        fill: #fff;
      }

      .cls-4 {
        fill: #d4db21;
      }

      .cls-5 {
        fill: #6fb783;
      }
    </style>
  </defs>
  <g id="Livello_1-2" data-name="Livello 1">
    <g>
      <g>
        <g>
          <g>
            <polygon class="cls-4" points="70.5789 55.98056 84.09198 31.27373 79.34801 52.90641 86.15736 56.06889 70.23717 72.70686 77.76481 58.28008 70.5789 55.98056"/>
            <path class="cls-5" d="m81.34413,41.66772l-.23999,1.12988-.60986,2.77002-.26001,1.18018-.21997,1.00977-.4502,2.05005v.01001l-.09985.41992.04004-.04004.13989-.12988.01001.01001c.01001.02002.04004.05005.07007.1001.02002.01978.04004.03979.06006.07007l.03979.03979c.03003.02002.05005.05005.08008.08008l.59009-2.69995c-.06006-.06006-.11011-.12012-.17017-.18018l.06006-.05981.04004-.03003c-.03003-.09009-.07007-.18018-.09009-.26001-.02979-.09009-.0498-.17017-.06982-.25-.01001-.02002-.01001-.04004-.02002-.07007v-.02002l.27979-1.27002.61011-2.79004.21997-1.02002c0-.02002,0-.02979-.01001-.0498Zm0,0l-.23999,1.12988-.60986,2.77002-.26001,1.18018-.21997,1.00977-.4502,2.05005v.01001l-.09985.41992.04004-.04004.13989-.12988.01001.01001c.01001.02002.04004.05005.07007.1001.02002.01978.04004.03979.06006.07007.00977.00977.02979.01978.03979.03979.03003.02002.05005.05005.08008.08008l.59009-2.69995c-.06006-.06006-.11011-.12012-.17017-.18018l.06006-.05981.04004-.03003c-.03003-.09009-.07007-.18018-.09009-.26001-.02979-.09009-.0498-.17017-.06982-.25-.01001-.02002-.01001-.04004-.02002-.07007v-.02002l.27979-1.27002.61011-2.79004.21997-1.02002c0-.02002,0-.02979-.01001-.0498Zm5.1001,14.0498c-.03003-.02979-.07007-.0498-.1001-.05981-.01001-.01001-.03003-.01001-.03979-.02002h-.01025l-4.58984-2.13989-.43018-.2002-.32983-.1499-1.08008-.5.37012-1.7002.05981-.26978.59009-2.67017.04004-.20996.67993-3.06006,1.84009-8.41992.01001-.04004,1.08008-4.90991.00977-.04004v-.06006c0-.05005-.00977-.09985-.02979-.1499s-.04004-.09009-.08008-.13013c-.03003-.04004-.07007-.07983-.12012-.09985-.04004-.03003-.08984-.05005-.13989-.05005l-.01001-.01001c-.09009-.02002-.17993,0-.26001.03003-.03003.01001-.05005.02002-.07007.04004-.06006.04004-.10986.08984-.13989.15991l-4.61011,8.44019-2.06006,3.75977-4.97998,9.11011-.00977.01001-1.8501,3.38989c-.01001.02002-.02002.04004-.03003.07007-.02002.05005-.03003.1001-.03003.1499,0,.05005.01001.1001.03003.15015l.01001.03003c.05005.11987.15991.19995.28003.23999l6.66992,2.13989-.93994,1.80005-6.34009,12.15015c-.01001.00977-.01001.02979-.02002.03979v.02002c-.02002.05005-.02979.1001-.02979.15015,0,.0498.00977.09985.02979.13989.01001.06006.05005.11987.09009.16992.01001.01001.02002.02002.03003.02002.03003.04004.07007.06006.10986.07007.01025.01001.02002.01001.02002.01001.06006.03003.11011.04004.17017.04004.09985,0,.19995-.03003.28979-.1001l.04004-.04004,15.92017-16.63989c.07983-.08008.12988-.18994.12988-.31006v-.04004c-.01001-.11987-.07983-.23999-.16992-.31006Zm-9.22998,4.59009c.01001-.01001.01001-.02002.02002-.03003l.92993-1.79004c.06006-.11987.07007-.25977.02002-.37988s-.1499-.21997-.28003-.26001l-6.65991-2.13013,6.73999-12.32983,1.95996-3.57007,3.03003-5.54004-.22998,1.04004-1.40015,6.3501-.23999,1.12988-.60986,2.77002-.26001,1.18018-.21997,1.00977-.4502,2.05005v.01001l-.09985.41992v.01025l-.37012,1.68994-.18994.86987c-.04004.20996.06006.42017.25.51001l6.23999,2.8999-.12988.13013-13.15015,13.73999,5.1001-9.78003Zm4.12988-18.63989l-.23999,1.12988-.60986,2.77002-.26001,1.18018-.21997,1.00977-.4502,2.05005v.01001l-.09985.41992.04004-.04004.13989-.12988.01001.01001c.01001.02002.04004.05005.07007.1001.02002.01978.04004.03979.06006.07007l.03979.03979c.03003.02002.05005.05005.08008.08008l.59009-2.69995c-.06006-.06006-.11011-.12012-.17017-.18018l.06006-.05981.04004-.03003c-.03003-.09009-.07007-.18018-.09009-.26001-.02979-.09009-.0498-.17017-.06982-.25-.01001-.02002-.01001-.04004-.02002-.07007v-.02002l.27979-1.27002.61011-2.79004.21997-1.02002c0-.02002,0-.02979-.01001-.0498Z"/>
          </g>
          <g>
            <polygon class="cls-5" points="84.09198 31.27373 81.24996 53.44263 79.4185 52.74774 84.09198 31.27373"/>
            <path class="cls-5" d="m84.5143,31.11768c-.02002-.05005-.04004-.09009-.08008-.13013-.03003-.04004-.07007-.07983-.12012-.09985-.04004-.03003-.08984-.05005-.13989-.05005l-.01001-.01001c-.09009-.02002-.17993,0-.26001.03003-.03003.01001-.05005.02002-.07007.04004-.06006.04004-.10986.08984-.13989.15991-.02002.04004-.04004.08008-.05005.12012l-.33008,1.51978v.01025l-.33984,1.56982-.22998,1.04004-1.39014,6.3999-.21997,1.02002-.61011,2.79004-.27979,1.27002v.02002l-.2002.91016-.45996,2.13989v.01001l-.07983.31982-.39014,1.79004-.13989.66016c-.05005.21997.06982.43994.28003.52002l1.82983.69995c.06006.02002.11011.03003.17017.03003.05005,0,.09985-.01001.1499-.03003.03003-.01001.05005-.02002.08008-.04004.11987-.07007.19995-.18994.21997-.32983l.05005-.39014.19995-1.59009.04004-.28979.33984-2.61011.03003-.26001.69019-5.41992,1.47998-11.57007.00977-.04004v-.06006c0-.05005-.00977-.09985-.02979-.1499Z"/>
          </g>
          <path class="cls-5" d="m86.61415,56.06763v-.04004c-.01001-.11987-.07983-.23999-.16992-.31006-.03003-.02979-.07007-.0498-.1001-.05981-.01001-.01001-.03003-.01001-.03979-.02002h-.01025c-.15991-.06006-.33984-.01001-.45996.11987l-.10986.11011-.33008.34985-.12988.13013-13.15015,13.73999-1.13989,1.19995-1.06006,1.11011c-.04004.04004-.07007.08984-.1001.13989v.02002c-.02002.05005-.02979.1001-.02979.15015,0,.0498.00977.09985.02979.13989.01001.06006.05005.11987.09009.16992.01001.01001.02002.02002.03003.02002.03003.04004.07007.06006.10986.07007.01025.01001.02002.01001.02002.01001.06006.03003.11011.04004.17017.04004.09985,0,.19995-.03003.28979-.1001l.04004-.04004,16.19019-13.03979c.11987-.1001.17993-.24023.16992-.39014l-.31006-3.52002Z"/>
          <path class="cls-2" d="m81.35414,41.71753c0,.22998-.03003.47021-.10986.72998-.03003.1001-.07007.2002-.11011.29004l-.03003.06006c-.63989,1.30005-2.22998.93018-3.11987.59009-.17017-.07007-.31006-.13013-.42017-.17993-.13989-.07007-.21997-.11011-.21997-.11011l-5.25,9.34985s-.01001-.00977-.02002-.02979l-.03979-.04004-1.03003-1.18994c-.08008-.07007-.21997-.18018-.41016-.32007-.6499-.53003-2.07983-1.61011-4.1499-2.84009-.04004-.02002-.07007-.0498-.11011-.06982-.06006-.04004-.12988-.08008-.19995-.12012-.06006-.03003-.12988-.07007-.19995-.10986v-.02002c.25-.44019.48999-.88013.71997-1.31006.61011-1.1499,1.17993-2.30005,1.70996-3.41992.97998.27979,1.98999.37988,3,.28979,2.14014-.19995,3.42993-3.37988,6.47998-3.88989.29004-.05005.75-.01001,1.23999.12012.15015.02979.29004.07983.43994.12988.14014.06006.29004.12012.42017.18994.73999.36011,1.36987.96997,1.3999,1.8501.01001.02002.01001.02979.01001.0498Z"/>
          <path class="cls-1" d="m77.34413,43.09766l-5.25,9.34985s-.01001-.00977-.02002-.02979c-.01001-.01001-.01978-.03003-.03003-.05005-.13989-.19995-.52979-.76001-1.03979-1.17993-.08008-.07007-.21997-.18018-.41016-.32007-.83984-.61987-2.60986-1.86987-4.1499-2.84009-.04004-.02002-.07007-.0498-.11011-.06982-.06006-.04004-.12988-.08008-.19995-.12012-.07007-.05005-.13989-.08984-.19995-.12012v-.00977c.25-.44019.48999-.88013.71997-1.31006,1.51001.8999,4.40015,2.70996,4.92993,3.43994,0,0,3.22021-5.31006,5.43994-6.58008.11011-.06006.22021-.11987.32007-.15991Z"/>
          <path class="cls-2" d="m82.97693,42.94579l-.26524,1.85694s-1.04817-.41596-1.82923.32034-.82167,1.34507-.45329,2.2762c0,0-.89014.60914-.94886,1.37692-.05872.76778.16866,1.29011.16866,1.29011,0,0-.97637.80453-.63981,1.68571s1.39085,1.62121,2.77178,1.35257c1.38093-.26864,1.92588-.71409,1.74812-2.04054,0,0,1.25347-.85462,1.18028-1.99486s-.34132-1.36272-.34132-1.36272c0,0,1.08508-1.5269,1.02544-2.84432s-1.85666-2.04863-2.41653-1.91634Z"/>
          <path class="cls-3" d="m80.42917,47.39927s1.92252,1.97078,3.93885.30718c0,0,.10428.06341.15475.30228,0,0-2.22341,1.70007-4.20243-.52355l.10884-.08591Z"/>
          <path class="cls-3" d="m79.64897,50.06631s1.10013,1.69402,3.88009.99773l.02692.28544s-2.71583.85147-4.0472-1.15077l.14018-.1324Z"/>
        </g>
        <path class="cls-5" d="m78.18422,58.10767c-.05005-.12012-.1499-.21997-.28003-.26001l-6.65991-2.13013-.4502-.13989-.07983-.03003c-.15991-.0498-.34009-.01001-.45996.12012-.03003.02979-.05005.06006-.07007.09985-.01001.02002-.02002.04004-.03003.07007-.02002.05005-.03003.1001-.03003.1499,0,.05005.01001.1001.03003.15015l.01001.03003.95996,2.51001c.05005.13989.16016.23999.29004.28003l4.76001,1.38989.43994.13013.09009.02979c.04004.01001.08008.02002.12988.02002.15015,0,.30005-.08008.38013-.21997.01001-.01001.01001-.02002.02002-.03003l.92993-1.79004c.06006-.11987.07007-.25977.02002-.37988Z"/>
      </g>
      <g>
        <g>
          <g>
            <polygon class="cls-4" points="16.53706 55.89204 4.54143 30.4139 7.96971 52.29369 .98172 55.03897 15.86758 72.60843 9.22535 57.7532 16.53706 55.89204"/>
            <path class="cls-5" d="m7.94423,49.19751v-.00977l-.33008-2.07007v-.01001l-.15991-1.03003c0,.02002,0,.04004-.01001.05005v.02002l.13989.92993.34009,2.17993q-.01001,0,0,.01001c-.05005.11011-.08008.17017-.08008.17017l.12012.11987.01001.02002.03003.03003-.06006-.41016Zm0,0v-.00977l-.33008-2.07007v-.01001l-.15991-1.03003c0,.02002,0,.04004-.01001.05005v.02002l.13989.92993.34009,2.17993q-.01001,0,0,.01001c-.05005.11011-.08008.17017-.08008.17017l.12012.11987.01001.02002.03003.03003-.06006-.41016Zm-2.45996-15.72998l1.16992,7.56006v.03003l.13989.92993c.01025.04004.02002.08008.04004.12012l-.17993-1.12988-1.16992-7.51025Zm11.47998,22.28027c0-.01025-.01001-.03027-.02002-.05029l-1.65015-3.5v-.00977l-4.41992-9.38013-1.81982-3.88989-4.1001-8.7002c0-.00977-.01001-.00977-.02002-.02002-.02002-.0498-.06006-.08984-.1001-.12988-.02979-.02002-.06006-.05005-.09985-.06006-.07007-.04004-.15015-.0498-.23999-.04004-.03003,0-.06006,0-.09009.01025-.01001.00977-.02002.02002-.03003.02002-.02002.00977-.05005.01978-.06982.02979-.04004.02002-.07007.05005-.1001.09009-.04004.04004-.07007.09009-.09009.13989-.02002.05005-.03003.1001-.03003.15015v.03979c.01001.01025.01001.02002.01001.04004l.79004,5.06006.01001.08008,1.32007,8.37012.47998,3.09985.04004.21997.41992,2.69995.04004.27002.27002,1.71997-1.07007.42017-.37012.1499-.43994.17017-4.72998,1.85986c-.16992.04004-.29004.18994-.31982.35986l-.01025.07007c0,.11011.04004.21021.11011.29004l14.88989,17.57007c.01025.02002.03027.03003.04004.0498.04004.04004.09009.07007.14014.08008.05005.02002.10986.03003.15991.03003s.1001-.01001.14014-.02002c.03003-.01001.05981-.02002.08984-.03979.01001,0,.02002-.02002.02002-.02002.03003-.01025.05005-.04004.07007-.04004.01001-.01001.02002-.02002.02002-.03003.03003-.03003.05005-.06006.06006-.09009.02002-.02002.02002-.03003.02002-.05005.02979-.05005.03979-.10986.03979-.15991s-.01001-.1001-.03003-.1499c0-.01025-.00977-.02002-.00977-.03003l-5.59009-12.51001-.83008-1.86011,6.79004-1.72998c.13013-.03003.23999-.11987.29004-.23999l.01001-.01001c.03003-.06006.04004-.13013.04004-.18994,0-.05005-.01001-.09009-.03003-.13989Zm-15.22998-.52002l6.3999-2.51025c.19995-.07983.32007-.27979.28003-.48975l-.14014-.89014-.26978-1.72998-.06006-.41016v-.00977l-.33008-2.07007v-.01001l-.15991-1.03003-.18018-1.15991-.43994-2.81006-.17993-1.12988-1.16992-7.51025,2.68994,5.72021,1.73999,3.67993,5.97998,12.71997-6.78003,1.72998c-.12988.03003-.23999.12012-.30005.23999-.05981.12012-.05981.26001,0,.38013l.82007,1.83984c0,.01001.01001.02002.01001.02002l4.51001,10.08008L1.73427,55.22778Zm4.91992-14.25l-1.16992-7.51025,1.16992,7.56006v.03003l.13989.92993c.01025.04004.02002.08008.04004.12012l-.17993-1.12988Zm1.29004,8.21973v-.00977l-.33008-2.07007v-.01001l-.15991-1.03003c0,.02002,0,.04004-.01001.05005v.02002l.13989.92993.34009,2.17993q-.01001,0,0,.01001c-.05005.11011-.08008.17017-.08008.17017l.12012.11987.01001.02002.03003.03003-.06006-.41016Z"/>
          </g>
          <g>
            <polygon class="cls-5" points="4.54143 30.4139 6.03883 52.71402 7.90893 52.13105 4.54143 30.4139"/>
            <path class="cls-5" d="m8.25429,51.3877v-.01001l-.28003-1.80005-.01001-.02002-.04004-.29004q-.01001-.01001,0-.01001l-.34009-2.17993-.13989-.92993v-.02002l-.19995-1.26001-.4502-2.88013-.13989-.92993v-.03003l-1.16992-7.56006-.25-1.57983v-.01001l-.23999-1.53003c-.01001-.06006-.03003-.11011-.06006-.15015-.02002-.0498-.06006-.08984-.1001-.12988-.02979-.02002-.06006-.05005-.09985-.06006-.07007-.04004-.15015-.0498-.23999-.04004-.04004,0-.08008.01025-.12012.03027-.02002.00977-.05005.01978-.06982.02979-.04004.02002-.07007.05005-.1001.09009-.04004.04004-.07007.09009-.09009.13989-.02002.05005-.03003.1001-.03003.15015v.03979l.79004,11.67017.36011,5.43994.02002.28003.17993,2.62012.02002.2998.1001,1.59009.02979.40015c.01001.13989.08008.25977.2002.33984.02979.02002.0498.03003.07983.04004.05005.03003.11011.04004.17017.04004.0498,0,.09985-.01001.13989-.02002l1.86987-.58008c.21021-.06982.3501-.28003.31006-.51001l-.09985-.66992Z"/>
          </g>
          <path class="cls-5" d="m16.29409,72.45776c0-.01025-.00977-.02002-.00977-.03003-.02002-.04004-.04004-.08008-.07007-.11011l-1.01001-1.18994-.01001-.01001-1.04004-1.23999L1.73427,55.22778l-.31006-.36011-.1001-.11987c-.10986-.14014-.28979-.19019-.46997-.14014-.16992.04004-.29004.18994-.31982.35986l-.01025.07007L.00429,58.4978c-.02002.1499.03003.2998.1499.40991l15.40991,14.03979c.04004.04004.09009.07007.14014.08008.05005.02002.10986.03003.15991.03003s.1001-.01001.14014-.02002c.03003-.01001.05981-.02002.08984-.03979.01001,0,.02002-.02002.02002-.02002.03003-.01025.05005-.04004.07007-.04004.01001-.01001.02002-.02002.02002-.03003.03003-.03003.05005-.06006.06006-.09009.02002-.02002.02002-.03003.02002-.05005.02979-.05005.03979-.10986.03979-.15991s-.01001-.1001-.03003-.1499Z"/>
          <path class="cls-2" d="m22.45424,47.51758c0,.01001.01001.02002.01001.03003-.42993.2002-.83008.3999-1.21997.59009-.03003.02002-.07007.04004-.11011.05981-2.45996,1.27002-4.06006,2.39014-4.56006,2.76025-.06982.0498-.12988.08984-.16992.11987l-1.11011,1.11987c-.03979.04004-.05981.07007-.05981.07007l-4.67017-9.63989s-.07983.04004-.22998.1001c-.10986.03979-.25.08984-.41992.13989-.90991.29004-2.52002.57007-3.08008-.76001-.02002-.04004-.02979-.08008-.04004-.12012-.03979-.07983-.05981-.15991-.07983-.25-.06006-.25-.08008-.46997-.06006-.67993-.01001-.03003,0-.05981,0-.07983.08008-.90015.75-1.47021,1.52002-1.79004.13989-.07007.29004-.12012.42993-.15015.15015-.05981.30005-.09009.4502-.11987.5-.1001.94995-.11011,1.23975-.04004,3.01025.69995,4.1001,3.94995,6.22021,4.28003,1.19995.17993,2.40991.07983,3.57983-.25.52002,1.07983,1.06006,2.16992,1.64014,3.28003.22998.43994.46997.88989.71997,1.32983Z"/>
          <path class="cls-1" d="m22.45424,47.51758c-.36011.17017-.77002.39014-1.20996.62012-.03003.02002-.07007.04004-.11011.05981-1.76001.98022-3.84985,2.28027-4.56006,2.76025-.06982.0498-.12988.08984-.16992.11987-.53003.38989-.95996.90991-1.11011,1.11011v.00977c-.03979.04004-.05981.07007-.05981.07007l-4.67017-9.63989c.1001.05005.2002.1001.31006.17993,2.1499,1.38989,5.03003,6.88989,5.03003,6.88989.68994-.82983,4.78003-2.96973,5.83008-3.50977.22998.43994.46997.88989.71997,1.32983Z"/>
          <path class="cls-2" d="m4.94923,42.132l.15256,1.86958s1.07139-.35187,1.80653.43027.73891,1.39225.31493,2.29943c0,0,.85171.66181.86394,1.43174s-.2463,1.27757-.2463,1.27757c0,0,.92598.86205.53679,1.72128s-1.48626,1.53421-2.84843,1.18263c-1.36217-.35159-1.87922-.82914-1.62164-2.14243,0,0-1.19954-.92879-1.05759-2.06253s.42303-1.33961.42303-1.33961c0,0-.99085-1.58967-.85172-2.90108s1.97705-1.93271,2.5279-1.76684Z"/>
          <path class="cls-3" d="m7.22326,46.73128s-2.03808,1.85102-3.95021.06864c0,0-.10792.05699-.17273.29238,0,0,2.11663,1.8313,4.22639-.26869l-.10345-.09233Z"/>
          <path class="cls-3" d="m7.8409,49.44059s-1.20048,1.62446-3.93329.76147l-.04412.2833s2.65942,1.01401,4.10933-.90414l-.13193-.14063Z"/>
        </g>
        <path class="cls-5" d="m16.96425,55.7478c0-.01025-.01001-.03027-.02002-.05029-.01001-.02979-.03003-.06982-.06006-.09985-.11011-.13013-.29004-.18994-.45996-.15015l-.09009.02002-.43994.12012-6.78003,1.72998c-.12988.03003-.23999.12012-.30005.23999-.05981.12012-.05981.26001,0,.38013l.82007,1.83984c0,.01001.01001.02002.01001.02002.08008.16016.23999.25.41016.25.02979,0,.05981,0,.09985-.01001l.08008-.02002.45996-.09985,4.82983-1.11011c.14014-.03003.25-.12988.31006-.25l1.11011-2.46997.01001-.01001c.03003-.06006.04004-.13013.04004-.18994,0-.05005-.01001-.09009-.03003-.13989Z"/>
      </g>
      <path class="cls-3" d="m73.95424,22.58765c-.58008,2.81006-2.52002,10.95996-6.79004,19.95996-.55005,1.16016-1.14014,2.32007-1.77002,3.5v.01001c-.17993.34009-.37012.67993-.56006,1.02002,0,.01001-.01001.02002-.02002.03003-4.5,8.12012-10.97998,16.33008-20.09985,21.5-.29004.15991-.64014.15991-.92993,0-9.3501-5.29004-15.91016-13.77002-20.43018-22.08008-.72998-1.35986-1.40991-2.70996-2.0498-4.04004-4.24023-8.97998-6.17017-17.08984-6.76025-19.8999-.11987-.56006.26025-1.08984.81006-1.16992C31.73427,19.09766,40.80434,5.20776,43.43422.48755c.37012-.6499,1.27002-.6499,1.62988,0,2.64014,4.72021,11.7002,18.61011,28.08008,20.93018.55005.08008.92993.60986.81006,1.16992Z"/>
      <path class="cls-2" d="m48.78725,52.57935h-8.2998c-.75195,0-1.36035-.6084-1.36035-1.36035s.6084-1.36035,1.36035-1.36035h7.72168l1.92969-2.00195c.52051-.54199,1.38379-.55664,1.92383-.03516.54102.52148.55664,1.38281.03516,1.92383l-2.33105,2.41797c-.25586.26562-.61035.41602-.97949.41602Z"/>
      <path class="cls-2" d="m61.03432,30.19751c-12.64014,0-28.69019,0-41.33008.01025-.68018,0-1.38013-.01025-2.05005.08984-.98999.1499.47998,2.95996.94995,2.95996,1.46997.01001,6.33008,0,7.80005,0h.29004v.29004c.01001.89014-.03003,1.78003.12988,2.66992.55005,3.01025,3.01001,5.55005,6.03003,6.06006,1.75.30005,3.52002.33008,5.23999-.16992,2.94995-.84009,5.17017-3.54004,5.41016-6.59009.05005-.73999,0-1.47998,0-2.25h2.33984v1.44019c0,.79004.11011,1.56982.34009,2.32983.87988,2.92993,3.55005,5.13013,6.60986,5.36011,1.37012.1001,2.75.13989,4.12012-.18994,2.92993-.7002,5.28003-3.28003,5.68994-6.27002.06006-.42017.08008-.8501.09009-1.27002.01001-.93994,0-1.88013,0-2.82007,0-1.01001-.63989-1.65015-1.65991-1.65015Zm-22.31006,8.19019c-.31006.30981-.75.32007-1.07007,0-1.02002-1.01001-2.04004-2.03003-3.06006-3.06006-.12988-.13013-.17993-.32983-.28003-.5.04004-.32983.22998-.61011.5-.72998.33008-.13013.62012-.07007.86011.17993,1.02002,1.01001,2.03003,2.02002,3.04004,3.04004.32007.32007.32007.75.01001,1.07007Zm1.52002-3.05005c-.31006.30005-.75.30005-1.07007-.02002-.5-.48999-1.01001-.98999-1.5-1.51001-.13013-.13989-.19995-.34009-.30005-.52002.05005-.32007.21997-.59009.48999-.70996.30005-.13989.61011-.09009.86011.15015.51001.50977,1.02002,1.00977,1.52002,1.52002.32983.32983.31982.76978,0,1.08984Zm18.16992,3.20996c-.29004.14014-.6001.08008-.8501-.16992-1.02002-1-2.02979-2.01001-3.02979-3.02002-.33008-.33008-.34009-.78003-.04004-1.09009.2998-.32007.77002-.32007,1.10986.02002,1.01001,1,2.02002,2.01001,3.02002,3.03003.13013.12012.18994.31006.29004.46997-.04004.33008-.21997.62012-.5.76001Zm1.90991-3.43994c-.13989.28003-.36987.43994-.78979.44995-.08008-.04004-.27002-.07983-.39014-.18994-.54004-.53003-1.08008-1.06006-1.60986-1.61011-.28003-.29004-.25-.75.02979-1.02979.28003-.29004.74023-.31006,1.04004-.03027.54004.53027,1.08008,1.06006,1.61011,1.61011.20996.21997.25.51001.10986.80005Z"/>
      <path class="cls-2" d="m45.7582,1.81104h.00513-.00513m-1.5061,2.49805c3.80298,5.86572,12.56055,16.68604,26.70093,19.45117-.81567,3.4375-2.69653,10.24585-6.20557,17.6416-.50732,1.07007-1.06763,2.17773-1.71265,3.38623-.02466.04639-.0481.09375-.07007.1416-.13257.24707-.27197.49707-.4231.76782-.02319.03735-.04541.0752-.06689.11377-4.98389,8.99341-11.12012,15.71216-18.22534,19.97241-7.26392-4.35327-13.49902-11.25562-18.53882-20.521-.66968-1.24731-1.32251-2.53442-1.98779-3.91699-3.43311-7.27051-5.302-13.91528-6.1748-17.58643,14.18311-2.77393,22.92383-13.60132,26.7041-19.4502m.00098-4.30908c-.31641,0-.63379.1626-.81885.48755-2.62988,4.72021-11.69995,18.61011-28.08008,20.93018-.5498.08008-.92993.60986-.81006,1.16992.59009,2.81006,2.52002,10.91992,6.76025,19.8999.63989,1.33008,1.31982,2.68018,2.0498,4.04004,4.52002,8.31006,11.08008,16.79004,20.43018,22.08008.14502.07983.30493.11987.46484.11987.16016,0,.32007-.04004.46509-.11987,9.11987-5.16992,15.59985-13.37988,20.09985-21.5.01001-.01001.02002-.02002.02002-.03003.18994-.34009.38013-.67993.56006-1.02002v-.01001c.62988-1.17993,1.21997-2.33984,1.77002-3.5,4.27002-9,6.20996-17.1499,6.79004-19.95996.11987-.56006-.26001-1.08984-.81006-1.16992C56.7643,19.09766,47.70424,5.20776,45.06411.48755c-.17993-.32495-.49487-.48755-.81104-.48755h0Z"/>
    </g>
  </g>
</svg>